<?xml version="1.0" encoding="UTF-8"?>
<svg width="1330px" height="545px" viewBox="0 0 1330 545" version="1.1" xmlns="http://www.w3.org/2000/svg" xmlns:xlink="http://www.w3.org/1999/xlink" style="background: #FFFFFF;">
    <title>Group 3</title>
    <defs>
        <rect id="path-1" x="0" y="0" width="1322" height="537" rx="19"></rect>
        <filter x="-0.5%" y="-0.9%" width="101.1%" height="102.6%" filterUnits="objectBoundingBox" id="filter-2">
            <feOffset dx="0" dy="2" in="SourceAlpha" result="shadowOffsetOuter1"></feOffset>
            <feGaussianBlur stdDeviation="2" in="shadowOffsetOuter1" result="shadowBlurOuter1"></feGaussianBlur>
            <feComposite in="shadowBlurOuter1" in2="SourceAlpha" operator="out" result="shadowBlurOuter1"></feComposite>
            <feColorMatrix values="0 0 0 0 0   0 0 0 0 0   0 0 0 0 0  0 0 0 0.5 0" type="matrix" in="shadowBlurOuter1"></feColorMatrix>
        </filter>
        <filter x="-14.8%" y="-15.4%" width="129.6%" height="130.8%" filterUnits="objectBoundingBox" id="filter-3">
            <feOffset dx="0" dy="2" in="SourceAlpha" result="shadowOffsetOuter1"></feOffset>
            <feGaussianBlur stdDeviation="2" in="shadowOffsetOuter1" result="shadowBlurOuter1"></feGaussianBlur>
            <feColorMatrix values="0 0 0 0 0   0 0 0 0 0   0 0 0 0 0  0 0 0 0.5 0" type="matrix" in="shadowBlurOuter1" result="shadowMatrixOuter1"></feColorMatrix>
            <feMerge>
                <feMergeNode in="shadowMatrixOuter1"></feMergeNode>
                <feMergeNode in="SourceGraphic"></feMergeNode>
            </feMerge>
        </filter>
        <filter x="-9.7%" y="-15.4%" width="119.4%" height="130.8%" filterUnits="objectBoundingBox" id="filter-4">
            <feOffset dx="0" dy="2" in="SourceAlpha" result="shadowOffsetOuter1"></feOffset>
            <feGaussianBlur stdDeviation="2" in="shadowOffsetOuter1" result="shadowBlurOuter1"></feGaussianBlur>
            <feColorMatrix values="0 0 0 0 0   0 0 0 0 0   0 0 0 0 0  0 0 0 0.5 0" type="matrix" in="shadowBlurOuter1" result="shadowMatrixOuter1"></feColorMatrix>
            <feMerge>
                <feMergeNode in="shadowMatrixOuter1"></feMergeNode>
                <feMergeNode in="SourceGraphic"></feMergeNode>
            </feMerge>
        </filter>
        <filter x="-9.6%" y="-15.4%" width="119.2%" height="130.8%" filterUnits="objectBoundingBox" id="filter-5">
            <feOffset dx="0" dy="2" in="SourceAlpha" result="shadowOffsetOuter1"></feOffset>
            <feGaussianBlur stdDeviation="2" in="shadowOffsetOuter1" result="shadowBlurOuter1"></feGaussianBlur>
            <feColorMatrix values="0 0 0 0 0   0 0 0 0 0   0 0 0 0 0  0 0 0 0.5 0" type="matrix" in="shadowBlurOuter1" result="shadowMatrixOuter1"></feColorMatrix>
            <feMerge>
                <feMergeNode in="shadowMatrixOuter1"></feMergeNode>
                <feMergeNode in="SourceGraphic"></feMergeNode>
            </feMerge>
        </filter>
    </defs>
    <g id="KeyBoard" stroke="none" stroke-width="1" fill="none" fill-rule="evenodd">
        <g id="Group-3" transform="translate(4.000000, 2.000000)">
            <g id="KeyBoard---BG" opacity="0.300000012">
                <use fill="black" fill-opacity="1" filter="url(#filter-2)" xlink:href="#path-1"></use>
                <rect stroke="#979797" stroke-width="2" stroke-linejoin="square" fill="#D8D8D8" fill-rule="evenodd" x="1" y="1" width="1320" height="535" rx="19"></rect>
            </g>
            <g id="Group" opacity="0.300000012" transform="translate(145.000000, 188.000000)" fill="#D8D8D8" stroke="#979797">
                <g id="Q" opacity="0.900000036">
                    <g id="Rectangle-2">
                        <rect id="Rectangle" x="0.5" y="0.5" width="80" height="77" rx="9"></rect>
                    </g>
                </g>
                <g id="Q-Copy-2" transform="translate(179.000000, 0.000000)" opacity="0.900000036">
                    <g id="Rectangle-2">
                        <rect id="Rectangle" x="0.5" y="0.5" width="80" height="77" rx="9"></rect>
                    </g>
                </g>
                <g id="Q-Copy" transform="translate(91.000000, 0.000000)" opacity="0.900000036">
                    <g id="Rectangle-2">
                        <rect id="Rectangle" x="0.5" y="0.5" width="80" height="77" rx="9"></rect>
                    </g>
                </g>
                <g id="Q-Copy-3" transform="translate(270.000000, 0.000000)" opacity="0.900000036">
                    <g id="Rectangle-2">
                        <rect id="Rectangle" x="0.5" y="0.5" width="80" height="77" rx="9"></rect>
                    </g>
                </g>
            </g>
            <g id="Group-Copy-3" opacity="0.300000012" transform="translate(169.000000, 273.000000)" fill="#D8D8D8" stroke="#979797">
                <g id="Q" opacity="0.900000036">
                    <g id="Rectangle-2">
                        <rect id="Rectangle" x="0.5" y="0.5" width="80" height="77" rx="9"></rect>
                    </g>
                </g>
                <g id="Q-Copy-2" transform="translate(179.000000, 0.000000)" opacity="0.900000036">
                    <g id="Rectangle-2">
                        <rect id="Rectangle" x="0.5" y="0.5" width="80" height="77" rx="9"></rect>
                    </g>
                </g>
                <g id="Q-Copy" transform="translate(91.000000, 0.000000)" opacity="0.900000036">
                    <g id="Rectangle-2">
                        <rect id="Rectangle" x="0.5" y="0.5" width="80" height="77" rx="9"></rect>
                    </g>
                </g>
                <g id="Q-Copy-3" transform="translate(270.000000, 0.000000)" opacity="0.900000036">
                    <g id="Rectangle-2">
                        <rect id="Rectangle" x="0.5" y="0.5" width="80" height="77" rx="9"></rect>
                    </g>
                </g>
            </g>
            <g id="Group-Copy-6" opacity="0.300000012" transform="translate(214.000000, 359.000000)" fill="#D8D8D8" stroke="#979797">
                <g id="Q" opacity="0.900000036">
                    <g id="Rectangle-2">
                        <rect id="Rectangle" x="0.5" y="0.5" width="80" height="77" rx="9"></rect>
                    </g>
                </g>
                <g id="Q-Copy-2" transform="translate(179.000000, 0.000000)" opacity="0.900000036">
                    <g id="Rectangle-2">
                        <rect id="Rectangle" x="0.5" y="0.5" width="80" height="77" rx="9"></rect>
                    </g>
                </g>
                <g id="Q-Copy" transform="translate(91.000000, 0.000000)" opacity="0.900000036">
                    <g id="Rectangle-2">
                        <rect id="Rectangle" x="0.5" y="0.5" width="80" height="77" rx="9"></rect>
                    </g>
                </g>
                <g id="Q-Copy-3" transform="translate(270.000000, 0.000000)" opacity="0.900000036">
                    <g id="Rectangle-2">
                        <rect id="Rectangle" x="0.5" y="0.5" width="80" height="77" rx="9"></rect>
                    </g>
                </g>
            </g>
            <g id="Group-Copy-7" opacity="0.300000012" transform="translate(572.000000, 361.000000)" fill="#D8D8D8" stroke="#979797">
                <g id="Q" opacity="0.900000036">
                    <g id="Rectangle-2">
                        <rect id="Rectangle" x="0.5" y="0.5" width="80" height="77" rx="9"></rect>
                    </g>
                </g>
                <g id="Q-Copy-2" transform="translate(179.000000, 0.000000)" opacity="0.900000036">
                    <g id="Rectangle-2">
                        <rect id="Rectangle" x="0.5" y="0.5" width="80" height="77" rx="9"></rect>
                    </g>
                </g>
                <g id="Q-Copy" transform="translate(91.000000, 0.000000)" opacity="0.900000036">
                    <g id="Rectangle-2">
                        <rect id="Rectangle" x="0.5" y="0.5" width="80" height="77" rx="9"></rect>
                    </g>
                </g>
                <g id="Q-Copy-3" transform="translate(270.000000, 0.000000)" opacity="0.900000036">
                    <g id="Rectangle-2">
                        <rect id="Rectangle" x="0.5" y="0.5" width="80" height="77" rx="9"></rect>
                    </g>
                </g>
            </g>
            <g id="Q" opacity="0.300000012" transform="translate(930.000000, 361.000000)" fill="#D8D8D8" stroke="#979797">
                <g id="Rectangle-2" opacity="0.900000036">
                    <rect id="Rectangle" x="0.5" y="0.5" width="80" height="77" rx="9"></rect>
                </g>
            </g>
            <g id="Q-Copy-2" opacity="0.300000012" transform="translate(1109.000000, 361.000000)" fill="#D8D8D8" stroke="#979797">
                <g id="Rectangle-2" opacity="0.900000036">
                    <rect id="Rectangle" x="0.5" y="0.5" width="191" height="77" rx="9"></rect>
                </g>
            </g>
            <g id="Q-Copy" opacity="0.300000012" transform="translate(1021.000000, 361.000000)" fill="#D8D8D8" stroke="#979797">
                <g id="Rectangle-2" opacity="0.900000036">
                    <rect id="Rectangle" x="0.5" y="0.5" width="80" height="77" rx="9"></rect>
                </g>
            </g>
            <g id="Group-Copy-9" opacity="0.300000012" transform="translate(11.000000, 101.000000)" fill="#D8D8D8" stroke="#979797">
                <g id="Q" opacity="0.900000036">
                    <g id="Rectangle-2">
                        <rect id="Rectangle" x="0.5" y="0.5" width="80" height="77" rx="9"></rect>
                    </g>
                </g>
                <g id="Q-Copy-2" transform="translate(179.000000, 0.000000)" opacity="0.900000036">
                    <g id="Rectangle-2">
                        <rect id="Rectangle" x="0.5" y="0.5" width="80" height="77" rx="9"></rect>
                    </g>
                </g>
                <g id="Q-Copy" transform="translate(91.000000, 0.000000)" opacity="0.900000036">
                    <g id="Rectangle-2">
                        <rect id="Rectangle" x="0.5" y="0.5" width="80" height="77" rx="9"></rect>
                    </g>
                </g>
                <g id="Q-Copy-3" transform="translate(270.000000, 0.000000)" opacity="0.900000036">
                    <g id="Rectangle-2">
                        <rect id="Rectangle" x="0.5" y="0.5" width="80" height="77" rx="9"></rect>
                    </g>
                </g>
            </g>
            <g id="Group-2" opacity="0.300000012" transform="translate(145.000000, 13.000000)" fill="#D8D8D8" stroke="#979797">
                <g id="Q" opacity="0.600000024">
                    <g id="Rectangle-2">
                        <rect id="Rectangle" x="0.5" y="0.5" width="80" height="77" rx="9"></rect>
                    </g>
                </g>
                <g id="Q-Copy-2" opacity="0.600000024" transform="translate(179.000000, 0.000000)">
                    <g id="Rectangle-2" opacity="0.900000036">
                        <rect id="Rectangle" x="0.5" y="0.5" width="80" height="77" rx="9"></rect>
                    </g>
                </g>
                <g id="Q-Copy" transform="translate(91.000000, 0.000000)" opacity="0.600000024">
                    <g id="Rectangle-2">
                        <rect id="Rectangle" x="0.5" y="0.5" width="80" height="77" rx="9"></rect>
                    </g>
                </g>
                <g id="Q-Copy-3" opacity="0.600000024" transform="translate(270.000000, 0.000000)">
                    <g id="Rectangle-2" opacity="0.900000036">
                        <rect id="Rectangle" x="0.5" y="0.5" width="80" height="77" rx="9"></rect>
                    </g>
                </g>
            </g>
            <g id="Group-2-Copy" opacity="0.300000012" transform="translate(503.000000, 13.000000)" fill="#D8D8D8" stroke="#979797">
                <g id="Q" opacity="0.900000036">
                    <g id="Rectangle-2">
                        <rect id="Rectangle" x="0.5" y="0.5" width="80" height="77" rx="9"></rect>
                    </g>
                </g>
                <g id="Q-Copy-2" transform="translate(179.000000, 0.000000)" opacity="0.900000036">
                    <g id="Rectangle-2">
                        <rect id="Rectangle" x="0.5" y="0.5" width="80" height="77" rx="9"></rect>
                    </g>
                </g>
                <g id="Q-Copy" transform="translate(91.000000, 0.000000)" opacity="0.900000036">
                    <g id="Rectangle-2">
                        <rect id="Rectangle" x="0.5" y="0.5" width="80" height="77" rx="9"></rect>
                    </g>
                </g>
                <g id="Q-Copy-3" transform="translate(270.000000, 0.000000)" opacity="0.900000036">
                    <g id="Rectangle-2">
                        <rect id="Rectangle" x="0.5" y="0.5" width="80" height="77" rx="9"></rect>
                    </g>
                </g>
            </g>
            <g id="Group-2-Copy-2" opacity="0.300000012" transform="translate(862.000000, 13.000000)" fill="#D8D8D8" stroke="#979797">
                <g id="Q" opacity="0.900000036">
                    <g id="Rectangle-2">
                        <rect id="Rectangle" x="0.5" y="0.5" width="80" height="77" rx="9"></rect>
                    </g>
                </g>
                <g id="Q-Copy-2" transform="translate(179.000000, 0.000000)" opacity="0.900000036">
                    <g id="Rectangle-2">
                        <rect id="Rectangle" x="0.5" y="0.5" width="80" height="77" rx="9"></rect>
                    </g>
                </g>
                <g id="Q-Copy" transform="translate(91.000000, 0.000000)" opacity="0.900000036">
                    <g id="Rectangle-2">
                        <rect id="Rectangle" x="0.5" y="0.5" width="80" height="77" rx="9"></rect>
                    </g>
                </g>
                <g id="Q-Copy-3" transform="translate(270.000000, 0.000000)" opacity="0.900000036">
                    <g id="Rectangle-2">
                        <rect id="Rectangle" x="0.5" y="0.5" width="80" height="77" rx="9"></rect>
                    </g>
                </g>
            </g>
            <g id="Group-Copy-10" opacity="0.300000012" transform="translate(369.000000, 101.000000)" fill="#D8D8D8" stroke="#979797">
                <g id="Q" opacity="0.900000036">
                    <g id="Rectangle-2">
                        <rect id="Rectangle" x="0.5" y="0.5" width="80" height="77" rx="9"></rect>
                    </g>
                </g>
                <g id="Q-Copy-2" transform="translate(179.000000, 0.000000)" opacity="0.900000036">
                    <g id="Rectangle-2">
                        <rect id="Rectangle" x="0.5" y="0.5" width="80" height="77" rx="9"></rect>
                    </g>
                </g>
                <g id="Q-Copy" transform="translate(91.000000, 0.000000)" opacity="0.900000036">
                    <g id="Rectangle-2">
                        <rect id="Rectangle" x="0.5" y="0.5" width="80" height="77" rx="9"></rect>
                    </g>
                </g>
                <g id="Q-Copy-3" transform="translate(270.000000, 0.000000)" opacity="0.900000036">
                    <g id="Rectangle-2">
                        <rect id="Rectangle" x="0.5" y="0.5" width="80" height="77" rx="9"></rect>
                    </g>
                </g>
            </g>
            <g id="Group-Copy-11" opacity="0.300000012" transform="translate(727.000000, 101.000000)" fill="#D8D8D8" stroke="#979797">
                <g id="Q" opacity="0.900000036">
                    <g id="Rectangle-2">
                        <rect id="Rectangle" x="0.5" y="0.5" width="80" height="77" rx="9"></rect>
                    </g>
                </g>
                <g id="Q-Copy-2" transform="translate(179.000000, 0.000000)" opacity="0.900000036">
                    <g id="Rectangle-2">
                        <rect id="Rectangle" x="0.5" y="0.5" width="80" height="77" rx="9"></rect>
                    </g>
                </g>
                <g id="Q-Copy" transform="translate(91.000000, 0.000000)" opacity="0.900000036">
                    <g id="Rectangle-2">
                        <rect id="Rectangle" x="0.5" y="0.5" width="80" height="77" rx="9"></rect>
                    </g>
                </g>
                <g id="Q-Copy-3" transform="translate(270.000000, 0.000000)" opacity="0.900000036">
                    <g id="Rectangle-2">
                        <rect id="Rectangle" x="0.5" y="0.5" width="80" height="77" rx="9"></rect>
                    </g>
                </g>
            </g>
            <g id="Q" filter="url(#filter-3)" opacity="0.300000012" transform="translate(526.000000, 273.000000)" fill="#D8D8D8" stroke="#979797">
                <g id="Rectangle-2" opacity="0.900000036">
                    <rect id="Rectangle" x="0.5" y="0.5" width="80" height="77" rx="9"></rect>
                </g>
            </g>
            <g id="Q-Copy-2" opacity="0.300000012" transform="translate(705.000000, 273.000000)" fill="#D8D8D8" stroke="#979797">
                <g id="Rectangle-2" opacity="0.900000036">
                    <rect id="Rectangle" x="0.5" y="0.5" width="80" height="77" rx="9"></rect>
                </g>
            </g>
            <g id="Q-Copy" opacity="0.300000012" transform="translate(617.000000, 273.000000)" fill="#D8D8D8" stroke="#979797">
                <g id="Rectangle-2" opacity="0.900000036">
                    <rect id="Rectangle" x="0.5" y="0.5" width="80" height="77" rx="9"></rect>
                </g>
            </g>
            <g id="Q-Copy-3" opacity="0.300000012" transform="translate(796.000000, 273.000000)" fill="#D8D8D8" stroke="#979797">
                <g id="Rectangle-2" opacity="0.900000036">
                    <rect id="Rectangle" x="0.5" y="0.5" width="80" height="77" rx="9"></rect>
                </g>
            </g>
            <g id="Q" opacity="0.300000012" transform="translate(887.000000, 273.000000)" fill="#D8D8D8" stroke="#979797">
                <g id="Rectangle-2" opacity="0.900000036">
                    <rect id="Rectangle" x="0.5" y="0.5" width="80" height="77" rx="9"></rect>
                </g>
            </g>
            <g id="Q-Copy-2" opacity="0.300000012" transform="translate(1066.000000, 273.000000)" fill="#D8D8D8" stroke="#979797">
                <g id="Rectangle-2" opacity="0.900000036">
                    <rect id="Rectangle" x="0.5" y="0.5" width="80" height="77" rx="9"></rect>
                </g>
            </g>
            <g id="Q-Copy" opacity="0.300000012" transform="translate(978.000000, 273.000000)" fill="#D8D8D8" stroke="#979797">
                <g id="Rectangle-2" opacity="0.900000036">
                    <rect id="Rectangle" x="0.5" y="0.5" width="80" height="77" rx="9"></rect>
                </g>
            </g>
            <g id="Q-Copy-3" opacity="0.300000012" transform="translate(1154.000000, 275.000000)" fill="#D8D8D8" stroke="#979797">
                <g id="Rectangle-2" opacity="0.900000036">
                    <rect id="Rectangle" x="0.5" y="0.5" width="146" height="77" rx="9"></rect>
                </g>
            </g>
            <g id="Q-Copy-13" opacity="0.300000012" transform="translate(1222.000000, 187.000000)" fill="#D8D8D8" stroke="#979797">
                <g id="Rectangle-2" opacity="0.900000036">
                    <rect id="Rectangle" x="0.5" y="0.5" width="78" height="77" rx="9"></rect>
                </g>
            </g>
            <g id="Q-Copy-14" opacity="0.300000012" transform="translate(1088.000000, 101.000000)" fill="#D8D8D8" stroke="#979797">
                <g id="Rectangle-2" opacity="0.900000036">
                    <rect id="Rectangle" x="0.5" y="0.5" width="78" height="77" rx="9"></rect>
                </g>
            </g>
            <g id="Q-Copy-15" opacity="0.300000012" transform="translate(1178.000000, 98.000000)" fill="#D8D8D8" stroke="#979797">
                <g id="Rectangle-2" opacity="0.900000036">
                    <rect id="Rectangle" x="0.5" y="0.5" width="122" height="77" rx="9"></rect>
                </g>
            </g>
            <g id="Group-Copy" opacity="0.300000012" transform="translate(503.000000, 188.000000)" fill="#D8D8D8" stroke="#979797">
                <g id="Q" opacity="0.900000036">
                    <g id="Rectangle-2">
                        <rect id="Rectangle" x="0.5" y="0.5" width="80" height="77" rx="9"></rect>
                    </g>
                </g>
                <g id="Q-Copy-2" transform="translate(179.000000, 0.000000)" opacity="0.900000036">
                    <g id="Rectangle-2">
                        <rect id="Rectangle" x="0.5" y="0.5" width="80" height="77" rx="9"></rect>
                    </g>
                </g>
                <g id="Q-Copy" transform="translate(91.000000, 0.000000)" opacity="0.900000036">
                    <g id="Rectangle-2">
                        <rect id="Rectangle" x="0.5" y="0.5" width="80" height="77" rx="9"></rect>
                    </g>
                </g>
                <g id="Q-Copy-3" transform="translate(270.000000, 0.000000)" opacity="0.900000036">
                    <g id="Rectangle-2">
                        <rect id="Rectangle" x="0.5" y="0.5" width="80" height="77" rx="9"></rect>
                    </g>
                </g>
            </g>
            <g id="Group-Copy-2" opacity="0.300000012" transform="translate(861.000000, 188.000000)" fill="#D8D8D8" stroke="#979797">
                <g id="Q" opacity="0.900000036">
                    <g id="Rectangle-2">
                        <rect id="Rectangle" x="0.5" y="0.5" width="80" height="77" rx="9"></rect>
                    </g>
                </g>
                <g id="Q-Copy-2" transform="translate(179.000000, 0.000000)" opacity="0.900000036">
                    <g id="Rectangle-2">
                        <rect id="Rectangle" x="0.5" y="0.5" width="80" height="77" rx="9"></rect>
                    </g>
                </g>
                <g id="Q-Copy" transform="translate(91.000000, 0.000000)" opacity="0.900000036">
                    <g id="Rectangle-2">
                        <rect id="Rectangle" x="0.5" y="0.5" width="80" height="77" rx="9"></rect>
                    </g>
                </g>
                <g id="Q-Copy-3" transform="translate(270.000000, 0.000000)" opacity="0.900000036">
                    <g id="Rectangle-2">
                        <rect id="Rectangle" x="0.5" y="0.5" width="80" height="77" rx="9"></rect>
                    </g>
                </g>
            </g>
            <g id="Q" opacity="0.300000012" transform="translate(13.000000, 187.000000)" fill="#D8D8D8" stroke="#979797">
                <g id="Rectangle-2" opacity="0.900000036">
                    <rect id="Rectangle" x="0.5" y="0.5" width="123" height="77" rx="9"></rect>
                </g>
            </g>
            <g id="Q-Copy-16" opacity="0.300000012" transform="translate(11.000000, 13.000000)" fill="#D8D8D8" stroke="#979797">
                <g id="Rectangle-2" opacity="0.900000036">
                    <rect id="Rectangle" x="0.5" y="0.5" width="123" height="77" rx="9"></rect>
                </g>
            </g>
            <g id="Q-Copy-4" opacity="0.300000012" transform="translate(13.000000, 273.000000)" fill="#D8D8D8" stroke="#979797">
                <g id="Rectangle-2" opacity="0.900000036">
                    <rect id="Rectangle" x="0.5" y="0.5" width="147" height="77" rx="9"></rect>
                </g>
            </g>
            <g id="Q-Copy-5" opacity="0.300000012" transform="translate(13.000000, 361.000000)" fill="#D8D8D8" stroke="#979797">
                <g id="Rectangle-2" opacity="0.900000036">
                    <rect id="Rectangle" x="0.5" y="0.5" width="190" height="77" rx="9"></rect>
                </g>
            </g>
            <g id="Q-Copy-6" filter="url(#filter-4)" opacity="0.300000012" transform="translate(13.000000, 448.000000)" fill="#D8D8D8" stroke="#979797">
                <g id="Rectangle-2" opacity="0.900000036">
                    <rect id="Rectangle" x="0.5" y="0.5" width="123" height="77" rx="9"></rect>
                </g>
            </g>
            <g id="Q-Copy-7" filter="url(#filter-5)" opacity="0.300000012" transform="translate(258.000000, 448.000000)" fill="#D8D8D8" stroke="#979797">
                <g id="Rectangle-2" opacity="0.900000036">
                    <rect id="Rectangle" x="0.5" y="0.5" width="124" height="77" rx="9"></rect>
                </g>
            </g>
            <g id="Q-Copy-9" opacity="0.300000012" transform="translate(392.000000, 447.000000)">
                <g id="Rectangle-2" fill="#D8D8D8" opacity="0.900000036" stroke="#979797">
                    <rect id="Rectangle" x="0.5" y="0.5" width="526" height="77" rx="9"></rect>
                </g>
                <g id="Q" transform="translate(196.000000, 29.000000)" fill="#5E5E5E" font-family="Helvetica-Light, Helvetica" font-size="18" font-weight="300" opacity="0.669999957">
                    <text id="awesome-cn.com">
                        <tspan x="0" y="18">awesome-cn.com</tspan>
                    </text>
                </g>
            </g>
            <g id="Q-Copy-10" opacity="0.300000012" transform="translate(930.000000, 449.000000)" fill="#D8D8D8" stroke="#979797">
                <g id="Rectangle-2" opacity="0.900000036">
                    <rect id="Rectangle" x="0.5" y="0.5" width="124" height="77" rx="9"></rect>
                </g>
            </g>
            <g id="Q-Copy-11" opacity="0.300000012" transform="translate(1066.000000, 449.000000)" fill="#D8D8D8" stroke="#979797">
                <g id="Rectangle-2" opacity="0.900000036">
                    <rect id="Rectangle" x="0.5" y="0.5" width="100" height="77" rx="9"></rect>
                </g>
            </g>
            <g id="Q-Copy-12" opacity="0.300000012" transform="translate(1178.000000, 449.000000)" fill="#D8D8D8" stroke="#979797">
                <g id="Rectangle-2" opacity="0.900000036">
                    <rect id="Rectangle" x="0.5" y="0.5" width="121" height="77" rx="9"></rect>
                </g>
            </g>
            <g id="Q-Copy-8" opacity="0.300000012" transform="translate(148.000000, 448.000000)" fill="#D8D8D8" stroke="#979797">
                <g id="Rectangle-2" opacity="0.900000036">
                    <rect id="Rectangle" x="0.5" y="0.5" width="102" height="77" rx="9"></rect>
                </g>
            </g>
            <text id="G" opacity="0.900000036" font-family="Helvetica-Light, Helvetica" font-size="30" font-weight="300" fill="#5E5E5E">
                <tspan x="554" y="323">G</tspan>
            </text>
            <text id="Control" font-family="Helvetica-Light, Helvetica" font-size="30" font-weight="300" fill="#5E5E5E">
                <tspan x="25" y="501">Control</tspan>
            </text>
            <g id="Group" opacity="0.600000024" transform="translate(308.000000, 479.000000)" fill="#000000" fill-rule="nonzero">
                <path d="M19,24 C16.243,24 14,21.757 14,19 L14,16 L10,16 L10,19 C10,21.757 7.757,24 5,24 C2.243,24 0,21.757 0,19 C0,16.243 2.243,14 5,14 L8,14 L8,10 L5,10 C2.243,10 0,7.757 0,5 C0,2.243 2.243,0 5,0 C7.757,0 10,2.243 10,5 L10,8 L14,8 L14,5 C14,2.243 16.243,0 19,0 C21.757,0 24,2.243 24,5 C24,7.757 21.757,10 19,10 L16,10 L16,14 L19,14 C21.757,14 24,16.243 24,19 C24,21.757 21.757,24 19,24 Z M16,16 L16,19 C16,20.654 17.346,22 19,22 C20.654,22 22,20.654 22,19 C22,17.346 20.654,16 19,16 L16,16 Z M5,16 C3.346,16 2,17.346 2,19 C2,20.654 3.346,22 5,22 C6.654,22 8,20.654 8,19 L8,16 L5,16 Z M10,14 L14,14 L14,10 L10,10 L10,14 Z M16,8 L19,8 C20.654,8 22,6.654 22,5 C22,3.346 20.654,2 19,2 C17.346,2 16,3.346 16,5 L16,8 Z M5,2 C3.346,2 2,3.346 2,5 C2,6.654 3.346,8 5,8 L8,8 L8,5 C8,3.346 6.654,2 5,2 Z" id="Shape"></path>
            </g>
        </g>
    </g>
</svg>